# xmcd
#
# Track frame offsets:
#	150
#	5225
#	19060
#	22782
#	36822
#	43375
#	44105
#	55205
#	84402
#	91972
#	99510
#	107737
#	112847
#	133252
#	138890
#	146957
#	155337
#	165390
#	166120
#	175100
#	180927
#	185885
#	200080
#	208330
#	212505
#	223812
#	236205
#	293092
#	302125
#	311502
#	318737
#	337917
#
# Disc length: 4683 seconds
#
# Revision: 1
# Processed by: cddbd v1.5.2PL0 Copyright (c) Steve Scherf et al.
# Submitted via: audiograbber 1.83.01
#
DISCID=d6124920
DTITLE=Nascita della Sfera - Per una scultura di Ceschia
DYEAR=1978
DGENRE=Progressive Rock
TTITLE0=Nascita
TTITLE1=La sfera
TTITLE2=Ankh
TTITLE3=Zed
TTITLE4=Stelle cadenti
TTITLE5=Cheope
TTITLE6=Campanelli
TTITLE7=Pianeta Terra
TTITLE8=Violenza vestita
TTITLE9=Puntine
TTITLE10=Verdi prati
TTITLE11=Magia
TTITLE12=Adam
TTITLE13=La fonderia
TTITLE14=L'incoronazione
TTITLE15=Luci dal pianeta
TTITLE16=Sotto il ponte
TTITLE17=Nell'universo
TTITLE18=Sul ferro
TTITLE19=Session Uno
TTITLE20=Session Due
TTITLE21=Session Tre
TTITLE22=Session Quattro
TTITLE23=Claudiemanuele
TTITLE24=Satiro di bosco
TTITLE25=Valeria all'alba
TTITLE26=Il castello di Strassoldo
TTITLE27=Cortoressone
TTITLE28=Paciuli
TTITLE29=Difetto
TTITLE30=Sono qui
TTITLE31=Guitarleslie
EXTD=
EXTT0=
EXTT1=
EXTT2=
EXTT3=
EXTT4=
EXTT5=
EXTT6=
EXTT7=
EXTT8=
EXTT9=
EXTT10=
EXTT11=
EXTT12=
EXTT13=
EXTT14=
EXTT15=
EXTT16=
EXTT17=
EXTT18=
EXTT19=
EXTT20=
EXTT21=
EXTT22=
EXTT23=
EXTT24=
EXTT25=
EXTT26=
EXTT27=
EXTT28=
EXTT29=
EXTT30=
EXTT31=
PLAYORDER=
